<?xml version="1.0" encoding="utf-8"?>
<svg id="master-artboard" viewBox="0 0 834.5652465820312 187.2825927734375" version="1.1" xmlns="http://www.w3.org/2000/svg" x="0px" y="0px" style="enable-background:new 0 0 1400 980;" width="834.5652465820312px" height="187.2825927734375px"><rect id="ee-background" x="0" y="0" width="834.5652465820312" height="187.2825927734375" style="fill: white; fill-opacity: 0; pointer-events: none;"/><defs><style id="ee-google-fonts">@import url(https://fonts.googleapis.com/css?family=Rubik:300,300italic,400,400italic,500,500italic,700,700italic,900,900italic);</style></defs>








































<g transform="matrix(1.9600000381469727, 0, 0, 1.9600000381469727, -71.60870361328125, -392.4782409667969)"><g data-paper-data="{'description':'Logo for CodeWorks\n==================\n\nThis logo was generated by MarkMaker at http://emblemmatic.org/markmaker/ and may be composed of elements designed by others.\n\nThe font is Poppins Bold designed by Indian Type Foundry and released under the OFL license via Google Fonts: https://www.google.com/fonts/specimen/Poppins. The font includes this copyright statement: Copyright (c) 2014 Indian Type Foundry (info@indiantypefoundry.com)\n\nMarkMaker uses semantic data from the Princeton University WordNet database http://wordnet.princeton.edu and font descriptions from Google Fonts https://www.google.com/fonts.'}" fill="none" fill-rule="nonzero" stroke="none" stroke-width="none" stroke-linecap="butt" stroke-linejoin="miter" stroke-miterlimit="10" stroke-dasharray="" stroke-dashoffset="0" font-family="none" font-weight="none" font-size="none" text-anchor="none" style="mix-blend-mode: normal"><path d="M50,250c0,-17.47935 14.16981,-31.64916 31.64916,-31.64916c17.47935,0 31.64916,14.16981 31.64916,31.64916c0,17.47935 -14.16981,31.64916 -31.64916,31.64916c-17.47935,0 -31.64916,-14.16981 -31.64916,-31.64916z" fill="#080301" stroke-width="0"/><g data-paper-data="{'elementType':'logo'}" fill="#080301" stroke-width="1"><g data-paper-data="{'elementType':'text'}"><g data-paper-data="{'baseline':74,'elementType':'row'}"><g data-paper-data="{'baselineProportion':0.9906291834002677,'fontSize':100,'baseline':74,'elementType':'word'}"><path d="M136.58421,264.555c0,0 -0.93542,-0.90857 -2.80627,-2.7257c-1.87085,-1.81714 -2.80627,-5.51855 -2.80627,-11.10423c0,-5.58568 1.87085,-10.19566 5.61254,-13.82993c3.74169,-3.63427 8.31586,-5.45141 13.72251,-5.45141c4.18926,0 7.91305,1.10998 11.17136,3.32993c3.25831,2.21995 5.53197,5.29924 6.82098,9.23786h-10.95653c-1.43223,-2.75703 -3.72379,-4.13555 -6.87468,-4.13555c-3.1509,0 -5.63044,0.98466 -7.43862,2.95397c-1.80819,1.96931 -2.71228,4.60103 -2.71228,7.89515c0,3.29412 0.90409,5.92583 2.71228,7.89515c1.80819,1.96931 4.28773,2.95397 7.43862,2.95397c3.1509,0 5.44246,-1.37852 6.87468,-4.13555h10.95653c-1.289,3.93862 -3.56266,7.01791 -6.82098,9.23786c-3.25831,2.21995 -6.9821,3.32993 -11.17136,3.32993c-5.40665,0 -9.98082,-1.81714 -13.72251,-5.45141z" data-paper-data="{'elementType':'letter','baseline':71.2,'baselineProportion':0.9916434540389973,'fontSize':100}"/><path d="M176.16736,265.81714c0,0 -0.75639,-0.70716 -2.26918,-2.12148c-1.51279,-1.41432 -2.26918,-4.43095 -2.26918,-9.04988c0,-4.61893 1.50384,-8.31586 4.51151,-11.0908c3.00767,-2.77494 6.73146,-4.16241 11.17136,-4.16241c4.4399,0 8.15474,1.38747 11.14451,4.16241c2.98977,2.77494 4.48466,6.47187 4.48466,11.0908c0,4.61893 -1.48593,8.34272 -4.4578,11.17136c-2.97187,2.82865 -6.67775,4.24297 -11.11765,4.24297c-4.4399,0 -8.17264,-1.41432 -11.19822,-4.24297zM191.76967,260.28517c0,0 0.30435,-0.32225 0.91304,-0.96675c0.6087,-0.6445 0.91304,-2.18414 0.91304,-4.61893c0,-2.43478 -0.6266,-4.28773 -1.8798,-5.55883c-1.2532,-1.2711 -2.73913,-1.90665 -4.4578,-1.90665c-1.71867,0 -3.19565,0.63555 -4.43095,1.90665c-1.23529,1.2711 -1.85294,3.12404 -1.85294,5.55883c0,2.43478 0.63555,4.29668 1.90665,5.58568c1.2711,1.289 2.76599,1.9335 4.48466,1.9335c1.71867,0 3.1867,-0.6445 4.40409,-1.9335" data-paper-data="{'elementType':'letter','baseline':56.400000000000006,'baselineProportion':0.9877408056042031,'fontSize':100}"/><path d="M210.19167,265.76344c0,0 -0.6624,-0.71611 -1.98721,-2.14834c-1.32481,-1.43223 -1.98721,-4.38619 -1.98721,-8.8619c0,-4.47571 1.32481,-8.15474 3.97443,-11.03709c2.64962,-2.88235 5.88108,-4.32353 9.69438,-4.32353c3.8133,0 6.74041,1.41432 8.78134,4.24297v-13.69566h9.18415v39.74427h-9.18415v-4.35039c-2.21995,3.1509 -5.19182,4.72635 -8.91561,4.72635c-3.72379,0 -6.91049,-1.43223 -9.56011,-4.29668zM226.68018,260.17776c0,0 0.3312,-0.32225 0.99361,-0.96675c0.6624,-0.6445 0.99361,-2.14834 0.99361,-4.51151c0,-2.36317 -0.6624,-4.18031 -1.98721,-5.45141c-1.32481,-1.2711 -2.84655,-1.90665 -4.56522,-1.90665c-1.71867,0 -3.24041,0.6445 -4.56522,1.9335c-1.32481,1.289 -1.98721,3.11509 -1.98721,5.47826c0,2.36317 0.6624,4.18031 1.98721,5.45141c1.32481,1.2711 2.84655,1.90665 4.56522,1.90665c1.71867,0 3.24041,-0.6445 4.56522,-1.9335" data-paper-data="{'elementType':'letter','baseline':74,'baselineProportion':0.9906291834002677,'fontSize':100}"/><path d="M258.20705,270.06011c-4.36829,0 -7.94885,-1.40537 -10.74169,-4.21612c-2.79284,-2.81074 -4.18926,-6.54348 -4.18926,-11.19822c0,-4.65473 1.38747,-8.36062 4.16241,-11.11765c2.77494,-2.75703 6.36445,-4.13555 10.76855,-4.13555c4.40409,0 8.05627,1.36061 10.95653,4.08184c2.90026,2.72123 4.35039,6.49873 4.35039,11.33249c0,1.03836 -0.07161,2.00512 -0.21483,2.90026h-20.62405c0.17903,1.32481 0.76982,2.40793 1.77238,3.24936c1.00256,0.84143 2.08568,1.26215 3.24936,1.26215c1.16368,0 2.03197,-0.11637 2.60486,-0.34911c0.57289,-0.23274 0.99361,-0.46547 1.26215,-0.69821c0.26854,-0.23274 0.61765,-0.61765 1.04732,-1.15473h9.93607c-0.85934,3.00767 -2.57801,5.43351 -5.15601,7.2775c-2.57801,1.84399 -5.63939,2.76599 -9.18415,2.76599M263.95385,251.96036c-0.14322,-1.39642 -0.75192,-2.53325 -1.82609,-3.41049c-1.07417,-0.87724 -2.34527,-1.31586 -3.8133,-1.31586c-1.46803,0 -2.70333,0.43862 -3.70588,1.31586c-1.00256,0.87724 -1.62916,2.01407 -1.8798,3.41049z" data-paper-data="{'elementType':'letter','baseline':56.400000000000006,'baselineProportion':0.9877408056042031,'fontSize':100}"/><path d="M320.83113,231.98081h9.88236l-10.52686,37.70335h-10.52686l-6.60614,-23.90027l-6.55243,23.90027h-10.52686l-10.68799,-37.70335h9.82865l6.55243,27.12278l6.71356,-27.12278h10.41944l6.44502,26.69311z" data-paper-data="{'elementType':'letter','baseline':70.2,'baselineProportion':1,'fontSize':100}"/><path d="M337.07794,265.81714c0,0 -0.75639,-0.70716 -2.26918,-2.12148c-1.51279,-1.41432 -2.26918,-4.43095 -2.26918,-9.04988c0,-4.61893 1.50384,-8.31586 4.51151,-11.0908c3.00767,-2.77494 6.73146,-4.16241 11.17136,-4.16241c4.4399,0 8.15474,1.38747 11.14451,4.16241c2.98977,2.77494 4.48466,6.47187 4.48466,11.0908c0,4.61893 -1.48593,8.34272 -4.4578,11.17136c-2.97187,2.82865 -6.67775,4.24297 -11.11765,4.24297c-4.4399,0 -8.17264,-1.41432 -11.19822,-4.24297zM352.68025,260.28517c0,0 0.30435,-0.32225 0.91304,-0.96675c0.6087,-0.6445 0.91304,-2.18414 0.91304,-4.61893c0,-2.43478 -0.6266,-4.28773 -1.8798,-5.55883c-1.2532,-1.2711 -2.73913,-1.90665 -4.4578,-1.90665c-1.71867,0 -3.19565,0.63555 -4.43095,1.90665c-1.23529,1.2711 -1.85294,3.12404 -1.85294,5.55883c0,2.43478 0.63555,4.29668 1.90665,5.58568c1.2711,1.289 2.76599,1.9335 4.48466,1.9335c1.71867,0 3.1867,-0.6445 4.40409,-1.9335" data-paper-data="{'elementType':'letter','baseline':56.400000000000006,'baselineProportion':0.9877408056042031,'fontSize':100}"/><path d="M378.51402,239.71483v5.58568c2.14834,-3.93862 5.01279,-5.90793 8.59336,-5.90793v9.34527h-2.25576c-2.11253,0 -3.69693,0.50128 -4.7532,1.50384c-1.05627,1.00256 -1.5844,2.75703 -1.5844,5.26343v14.17904h-9.18415v-29.96933z" data-paper-data="{'elementType':'letter','baseline':56.400000000000006,'baselineProportion':1,'fontSize':100}"/><path d="M400.85675,269.68415h-9.18415v-39.74427h9.18415v22.28902l9.29157,-12.51407h12.35295l-12.83632,15.30691l12.83632,14.66241h-12.19182l-9.45269,-11.97699z" data-paper-data="{'elementType':'letter','baseline':74,'baselineProportion':1,'fontSize':100}"/><path d="M424.27364,248.73785c0,-2.64962 1.12788,-4.86957 3.38363,-6.65985c2.25576,-1.79028 5.30819,-2.68542 9.15729,-2.68542c3.84911,0 6.95525,0.87724 9.31842,2.63172c2.36317,1.75448 3.61637,4.15346 3.75959,7.19694h-9.39898c-0.10742,-1.03836 -0.46547,-1.74553 -1.07417,-2.12148c-0.6087,-0.37596 -1.52174,-0.56394 -2.73913,-0.56394c-2.39898,0 -3.59847,0.73402 -3.59847,2.20205c0,1.32481 1.46803,2.23785 4.40409,2.73913c2.97187,0.50128 5.6752,1.2711 8.10998,2.30946c1.2532,0.50128 2.30051,1.33376 3.14195,2.49744c0.84143,1.16368 1.26215,2.58696 1.26215,4.26982c0,2.79284 -1.19949,5.07545 -3.59847,6.84783c-2.39898,1.77238 -5.42456,2.65857 -9.07673,2.65857c-3.65218,0 -6.69566,-0.83248 -9.13044,-2.49744c-2.43478,-1.66496 -3.75959,-4.1266 -3.97443,-7.38491h9.39898c0.25064,1.82609 1.53964,2.73913 3.86701,2.73913c1.07417,0 1.96036,-0.25064 2.65857,-0.75192c0.69821,-0.50128 1.04732,-1.14578 1.04732,-1.9335c0,-0.78772 -0.58184,-1.41432 -1.74553,-1.8798c-1.16368,-0.46547 -2.56906,-0.85934 -4.21612,-1.18159c-1.64706,-0.32225 -3.30307,-0.72506 -4.96803,-1.20844c-1.66496,-0.48338 -3.07929,-1.32481 -4.24297,-2.5243c-1.16368,-1.19949 -1.74553,-2.76599 -1.74553,-4.69949z" data-paper-data="{'elementType':'letter','baseline':56.400000000000006,'baselineProportion':0.9877408056042031,'fontSize':100}"/></g></g></g></g><g data-paper-data="{'elementType':'emblem'}" fill="#ffffff" stroke-width="1"><g data-paper-data="{'baselineProportion':0.9916434540389973,'fontSize':100,'baseline':71.2,'elementType':'word'}"><path d="M66.86391,260.35974c0,0 -0.70071,-0.68059 -2.10212,-2.04177c-1.40141,-1.36118 -2.10212,-4.13384 -2.10212,-8.31796c0,-4.18413 1.40141,-7.63737 4.20424,-10.35974c2.80283,-2.72236 6.22925,-4.08355 10.27927,-4.08355c3.13809,0 5.92751,0.83146 8.36825,2.49438c2.44074,1.66292 4.14389,3.96956 5.10946,6.9199h-8.20732c-1.07285,-2.06524 -2.78942,-3.09786 -5.14969,-3.09786c-2.36028,0 -4.21765,0.73759 -5.57213,2.21276c-1.35448,1.47517 -2.03172,3.44654 -2.03172,5.9141c0,2.46756 0.67724,4.43893 2.03172,5.9141c1.35448,1.47517 3.21185,2.21276 5.57213,2.21276c2.36028,0 4.07684,-1.03262 5.14969,-3.09786h8.20732c-0.96557,2.95035 -2.66872,5.25698 -5.10946,6.9199c-2.44074,1.66292 -5.23016,2.49438 -8.36825,2.49438c-4.05002,0 -7.47644,-1.36118 -10.27927,-4.08355z" data-paper-data="{'elementType':'letter','baseline':71.2,'baselineProportion':0.9916434540389973,'fontSize':100}"/><path d="M100.63866,260.4402c0,0 0,0.26486 0,0.79458c0,0.52972 -0.36209,1.15667 -1.08626,1.88085c-0.72418,0.72418 -1.61598,1.08626 -2.67543,1.08626c-1.05944,0 -1.95125,-0.36209 -2.67543,-1.08626c-0.72418,-0.72418 -1.08626,-1.61598 -1.08626,-2.67543c0,-1.05944 0.36209,-1.95125 1.08626,-2.67543c0.72418,-0.72418 1.61598,-1.08626 2.67543,-1.08626c1.05944,0 1.95125,0.36209 2.67543,1.08626c0.72418,0.72418 1.08626,1.61598 1.08626,2.67543z" data-paper-data="{'elementType':'letter','baseline':18.700000000000003,'baselineProportion':1,'fontSize':100}"/></g></g></g></g></svg>